<svg xmlns="http://www.w3.org/2000/svg" width="666" height="163" viewBox="0 0 666 163">
<rect width="666" height="163" fill="#0f1220"/>
<g>
<path d="M 568.22 0.00 L 666.00 0.00 L 666.00 163.00 L 604.89 163.00 L 605.20 158.35 C605.50,153.72 605.73,153.43 611.00,150.99 C613.01,150.06 613.59,146.00 611.70,146.00 C610.92,146.00 609.13,145.10 607.73,144.00 C604.52,141.48 596.05,141.26 592.46,143.62 C589.57,145.51 580.00,144.80 576.29,142.42 C574.99,141.59 571.53,141.00 567.93,141.00 C562.66,141.00 561.52,140.66 559.92,138.63 C558.60,136.95 556.68,136.10 553.28,135.69 C550.65,135.38 547.60,134.94 546.50,134.72 C545.40,134.49 543.15,134.82 541.50,135.44 C538.27,136.66 537.23,136.66 532.27,135.51 C530.49,135.09 529.26,134.39 529.54,133.94 C530.97,131.62 512.92,131.68 510.59,134.01 C510.05,134.55 506.55,135.00 502.82,135.00 C496.70,135.00 495.89,135.24 494.41,137.50 C493.05,139.58 491.98,140.00 488.11,140.00 C484.75,140.00 482.99,139.46 481.80,138.08 C480.90,137.03 480.43,135.91 480.75,135.58 C481.07,135.26 480.36,135.00 479.17,135.00 C477.98,135.00 477.00,134.52 477.00,133.94 C477.00,133.27 474.83,133.05 471.01,133.34 C467.35,133.61 465.24,133.42 465.60,132.84 C465.96,132.25 460.87,131.90 452.34,131.93 L 450.58 131.93 C435.85,131.98 434.69,131.98 434.21,131.42 C434.15,131.35 434.10,131.27 434.03,131.18 C433.74,130.78 432.24,129.65 430.71,128.67 C429.17,127.70 427.50,125.81 426.99,124.48 C425.99,121.83 420.88,119.85 420.22,121.84 C420.01,122.48 418.92,123.00 417.81,123.00 C416.48,123.00 415.97,122.52 416.32,121.60 C416.97,119.92 414.22,119.03 408.33,119.01 C403.00,119.00 401.00,119.79 401.00,121.92 C401.00,124.15 395.82,129.39 391.74,131.29 C389.25,132.45 386.22,132.67 378.73,132.26 C370.63,131.82 368.66,132.00 367.18,133.34 C364.68,135.60 358.53,137.60 351.50,138.43 C348.20,138.82 343.90,139.55 341.95,140.05 C340.00,140.55 336.54,141.20 334.26,141.49 C331.97,141.78 329.07,142.39 327.80,142.86 C325.61,143.67 324.37,143.56 321.00,142.26 C320.17,141.94 319.11,141.77 318.63,141.88 C318.16,141.99 313.66,140.93 308.63,139.53 C303.61,138.14 297.90,136.55 295.94,136.01 C293.98,135.47 291.32,133.90 290.02,132.52 C288.72,131.13 287.16,130.00 286.55,130.00 C285.95,130.00 284.62,128.45 283.60,126.55 C281.12,121.95 278.09,119.23 274.77,118.63 C273.26,118.36 271.61,117.88 271.10,117.56 C269.64,116.66 267.01,119.87 267.71,121.69 C268.10,122.71 267.94,123.08 267.28,122.67 C266.35,122.10 265.35,124.20 264.97,127.50 C264.79,129.09 262.75,129.86 256.92,130.54 C253.94,130.89 250.15,131.34 248.50,131.53 C246.85,131.73 243.54,132.38 241.13,132.97 C230.95,135.51 198.00,130.16 198.00,125.96 C198.00,125.43 197.10,125.00 196.00,125.00 C194.90,125.00 194.00,124.47 194.00,123.83 C194.00,123.19 193.74,122.93 193.42,123.25 C193.10,123.57 191.25,122.75 189.30,121.43 C187.35,120.11 185.30,119.32 184.73,119.67 C184.16,120.02 183.97,119.86 184.31,119.30 C185.28,117.73 180.46,116.02 177.32,116.82 C169.32,118.84 168.81,117.50 168.63,94.00 C168.45,69.14 168.84,64.69 171.51,61.58 C172.73,60.16 174.24,59.00 174.87,59.00 C175.49,59.00 176.00,58.52 176.00,57.94 C176.00,57.36 176.42,57.14 176.92,57.45 C178.56,58.47 178.66,54.58 177.05,52.04 C176.20,50.68 176.03,49.90 176.68,50.30 C177.33,50.71 178.13,50.59 178.46,50.06 C178.79,49.53 179.84,49.36 180.78,49.70 C181.73,50.04 182.17,49.96 181.77,49.51 C181.37,49.07 181.97,47.89 183.11,46.90 C184.25,45.92 184.95,44.72 184.66,44.26 C184.37,43.79 184.50,42.82 184.94,42.10 C185.51,41.18 185.95,41.12 186.43,41.89 C186.81,42.50 186.66,43.00 186.09,43.00 C185.53,43.00 185.35,43.75 185.71,44.68 C186.29,46.19 186.41,46.17 187.00,44.49 C187.36,43.47 187.91,43.05 188.22,43.57 C188.52,44.08 187.03,47.18 184.89,50.45 C178.72,59.87 176.74,66.09 176.23,77.58 C175.49,94.25 179.25,105.68 188.69,115.54 C198.72,126.00 213.47,130.63 233.91,129.71 C246.13,129.16 260.78,126.26 263.74,123.80 C264.69,123.01 265.00,116.59 265.00,97.47 L 265.00 72.18 L 256.25 71.54 C243.23,70.59 241.81,70.32 249.06,70.15 C253.07,70.06 256.37,69.43 257.56,68.53 C260.10,66.61 261.94,66.63 264.13,68.62 C266.87,71.10 268.67,69.66 269.47,64.35 C270.24,59.20 272.28,55.78 278.24,49.64 C280.30,47.52 281.77,45.43 281.50,45.00 C281.24,44.58 281.69,43.67 282.51,42.99 C283.41,42.24 284.00,42.16 284.00,42.79 C284.00,43.37 283.44,44.06 282.75,44.34 C282.06,44.62 281.98,44.88 282.56,44.92 C283.15,44.96 284.62,43.65 285.84,42.00 C287.06,40.35 288.72,39.00 289.53,39.00 C290.34,39.00 291.00,38.50 291.00,37.89 C291.00,37.28 291.70,37.05 292.55,37.38 C293.41,37.71 293.84,37.55 293.52,37.04 C292.80,35.87 296.45,33.81 297.53,34.79 C297.96,35.18 298.00,34.94 297.60,34.25 C297.21,33.56 297.25,32.97 297.69,32.92 C299.17,32.78 301.43,32.17 309.50,29.70 C313.90,28.35 317.63,27.57 317.78,27.97 C317.94,28.37 320.36,28.33 323.18,27.88 C327.11,27.26 329.57,27.50 333.89,28.91 C336.98,29.92 341.04,31.03 342.92,31.38 C344.81,31.73 348.72,33.14 351.61,34.51 C354.51,35.88 357.34,37.00 357.92,37.00 C358.49,37.00 359.71,38.15 360.62,39.55 C361.65,41.12 362.87,41.88 363.79,41.53 C365.07,41.04 365.09,41.21 363.92,42.73 C363.18,43.70 362.95,44.18 363.41,43.79 C363.88,43.40 366.16,44.63 368.48,46.54 C370.80,48.44 373.43,50.00 374.31,50.00 C376.55,50.00 379.78,53.71 380.53,57.14 C381.48,61.48 383.65,60.57 385.47,55.08 C386.37,52.37 387.76,49.61 388.55,48.95 C389.35,48.29 390.01,47.25 390.01,46.63 C390.03,44.73 395.54,33.87 396.17,34.50 C396.49,34.82 393.46,45.11 389.43,57.35 C382.89,77.23 382.17,80.21 382.66,85.06 C383.88,97.06 379.05,110.21 369.50,120.91 C366.47,124.30 364.00,127.51 364.00,128.04 C364.00,128.61 370.04,129.00 378.95,129.00 L 393.89 129.00 L 396.23 121.25 C397.31,117.69 397.88,115.54 399.25,114.24 C401.43,112.17 405.64,112.23 417.14,112.12 L 429.77 112.00 L 432.12 120.50 L 434.46 129.00 L 449.73 129.00 L 450.41 129.00 C460.50,129.00 464.10,129.00 464.83,127.55 C465.24,126.75 464.76,125.50 464.01,123.55 L 463.92 123.32 C462.14,118.67 441.00,53.07 441.00,52.20 C441.00,51.92 441.83,52.65 442.85,53.83 C443.87,55.00 444.99,55.75 445.35,55.48 C445.71,55.22 445.81,55.26 445.59,55.58 C445.36,55.90 445.79,57.64 446.55,59.45 C447.30,61.26 447.65,63.02 447.32,63.35 C446.99,63.68 447.17,64.53 447.72,65.23 C448.27,65.93 449.02,67.74 449.38,69.25 C449.80,71.01 450.70,72.00 451.87,72.00 C454.70,72.00 457.50,75.04 459.48,80.28 C460.48,82.91 461.66,85.29 462.10,85.56 C463.74,86.58 464.73,82.28 464.49,75.19 C464.35,71.17 464.69,66.00 465.23,63.69 C466.49,58.38 466.92,39.00 465.78,39.00 C465.31,39.00 465.50,38.37 466.21,37.60 C467.31,36.42 467.60,36.45 468.18,37.85 C468.55,38.76 468.89,59.64 468.93,84.26 L 469.00 129.03 L 500.25 128.76 L 531.50 128.50 L 531.78 117.27 L 532.07 106.05 L 515.78 105.77 L 499.50 105.50 L 499.29 69.21 C499.17,49.26 498.77,32.38 498.40,31.71 C498.02,31.05 498.43,31.17 499.30,32.00 C501.66,34.23 501.98,37.31 502.51,63.00 C502.77,75.93 503.25,88.12 503.56,90.10 C504.05,93.23 504.43,93.64 506.47,93.25 C508.17,92.92 509.16,93.43 510.04,95.08 C511.10,97.05 510.98,97.60 509.18,99.06 C508.03,99.99 507.37,101.03 507.71,101.38 C508.05,101.72 513.03,102.00 518.77,102.00 C529.07,102.00 529.23,101.96 532.00,99.00 C535.31,95.46 536.26,95.34 540.03,98.02 C542.37,99.69 543.02,99.80 543.69,98.65 C544.13,97.89 545.46,96.96 546.64,96.60 C548.40,96.05 548.98,96.50 549.89,99.12 C552.06,105.33 550.72,114.13 547.42,115.39 C546.58,115.71 546.31,115.37 546.66,114.44 C547.07,113.37 546.75,113.16 545.45,113.66 C544.28,114.11 543.91,113.96 544.35,113.24 C544.73,112.63 543.67,112.81 542.01,113.64 C536.31,116.49 535.59,120.73 539.92,125.95 L 542.78 129.41 L 549.99 123.91 L 552.18 125.95 C554.72,128.32 555.35,128.41 558.32,126.85 C561.55,125.15 561.88,124.20 561.27,118.34 C560.89,114.69 561.08,113.00 561.86,113.00 C562.57,113.00 563.00,111.00 563.00,107.70 C563.00,101.99 564.17,100.00 567.53,100.00 C571.85,100.00 572.71,105.16 570.70,118.94 C570.31,121.58 572.62,125.00 574.78,125.00 C575.56,125.00 575.81,125.50 575.38,126.20 C574.97,126.85 576.05,126.39 577.78,125.16 L 580.91 122.92 L 580.48 107.35 C580.25,98.78 579.60,91.22 579.04,90.55 C578.48,89.87 576.22,88.78 574.01,88.12 C567.59,86.20 569.52,81.46 576.28,82.53 C579.01,82.97 580.13,82.67 581.16,81.24 C583.58,77.88 585.15,77.55 587.01,80.01 C588.23,81.63 589.29,82.10 590.59,81.60 C592.14,81.01 592.20,80.74 591.00,80.00 C590.08,79.43 589.25,79.54 588.72,80.30 C588.25,80.97 588.18,79.96 588.55,78.00 C589.55,72.84 590.56,72.12 597.23,71.80 C601.69,71.58 603.58,71.04 604.39,69.75 C605.81,67.49 604.19,64.75 601.00,64.00 C599.73,63.70 598.31,62.68 597.84,61.73 C597.38,60.78 596.62,59.21 596.15,58.25 C594.35,54.55 587.00,55.95 587.00,60.00 C587.00,60.97 586.33,62.32 585.50,63.00 C582.83,65.21 581.00,62.47 581.00,56.29 C581.00,52.33 580.45,50.11 579.00,48.27 C576.47,45.06 576.47,42.94 579.00,39.73 C581.66,36.34 581.52,34.39 578.46,32.38 C576.45,31.06 574.55,30.85 569.29,31.34 C560.94,32.12 560.00,31.40 560.00,24.19 C560.00,19.85 560.48,18.12 562.18,16.31 C564.61,13.73 566.95,8.20 567.71,3.25 L 568.22 0.00 ZM 39.00 161.50 C40.10,162.83 72.83,163.00 322.57,163.00 L 0.00 163.00 L 0.00 0.00 L 146.00 0.00 L 143.87 2.13 C141.85,4.15 141.12,4.23 130.75,3.57 C120.26,2.91 119.65,2.98 117.38,5.11 C115.80,6.60 115.00,8.46 115.00,10.67 C115.00,12.50 114.66,14.00 114.25,14.00 C113.84,14.00 111.47,15.86 109.00,18.14 C106.52,20.42 103.11,22.86 101.42,23.58 C99.73,24.30 97.81,25.53 97.16,26.31 C95.12,28.77 84.86,30.40 79.33,29.14 C76.67,28.53 72.82,28.22 70.76,28.44 C68.71,28.67 66.77,28.43 66.45,27.92 C66.14,27.42 65.43,27.00 64.88,27.00 C64.33,27.00 64.15,27.43 64.47,27.96 C64.80,28.48 63.92,29.66 62.52,30.58 C61.12,31.50 59.71,33.32 59.38,34.62 C59.05,35.93 58.45,37.00 58.05,37.00 C56.94,37.00 55.00,41.78 55.00,44.50 C55.00,47.46 52.98,52.22 51.27,53.30 C50.57,53.74 50.00,54.74 50.00,55.51 C50.00,56.29 48.60,58.53 46.88,60.49 C44.41,63.29 43.47,63.80 42.38,62.90 C40.49,61.33 38.00,63.47 38.00,66.65 C38.00,68.29 37.21,69.35 35.51,70.00 C32.37,71.19 30.72,70.57 29.48,67.73 C28.76,66.09 27.50,65.42 24.69,65.19 C22.60,65.01 20.67,64.29 20.39,63.58 C19.71,61.79 14.00,67.21 14.00,69.66 C14.00,70.68 13.16,72.05 12.12,72.69 C11.09,73.34 9.99,75.13 9.69,76.68 C9.38,78.23 8.57,81.53 7.90,84.00 C7.23,86.47 6.51,95.04 6.30,103.03 C5.91,117.54 5.91,117.57 8.45,119.96 C9.85,121.27 11.00,123.14 11.00,124.12 C11.00,126.99 12.89,127.30 13.58,124.54 C14.31,121.61 15.64,121.36 18.78,123.56 C20.00,124.41 21.45,124.84 22.00,124.50 C22.55,124.16 23.00,124.43 23.00,125.11 C23.00,125.78 23.31,126.02 23.69,125.65 C24.06,125.27 24.26,122.89 24.13,120.36 C23.80,113.83 24.81,110.00 26.88,110.00 C27.83,110.00 29.08,109.52 29.67,108.93 C30.42,108.18 30.90,108.31 31.32,109.38 C31.71,110.42 31.44,110.72 30.45,110.34 C29.35,109.92 29.00,110.66 29.00,113.42 C29.00,117.02 23.68,129.14 22.24,128.83 C21.83,128.74 20.21,129.03 18.63,129.47 L 15.76 130.28 L 16.48 143.39 C16.88,150.60 17.41,156.84 17.66,157.25 C17.91,157.66 20.57,158.00 23.56,158.00 C28.33,158.00 29.00,157.75 29.00,156.00 C29.00,154.89 29.67,154.00 30.50,154.00 C31.33,154.00 32.00,154.81 32.00,155.80 C32.00,158.06 33.88,160.00 36.08,160.00 C37.00,160.00 38.32,160.68 39.00,161.50 ZM 322.86 128.80 C328.74,133.70 328.75,133.70 334.12,132.95 C337.08,132.54 341.98,131.26 345.00,130.11 C349.72,128.31 351.02,127.20 354.19,122.26 C354.31,122.08 354.42,121.90 354.53,121.73 C357.26,117.47 358.51,115.53 358.16,113.93 C357.86,112.53 356.33,111.39 353.49,109.17 L 347.96 104.85 L 337.23 107.51 C331.33,108.97 325.71,110.59 324.75,111.09 C323.59,111.70 323.00,111.65 323.00,110.93 C323.00,109.52 311.90,90.00 311.11,90.01 C310.77,90.02 314.55,85.81 319.50,80.65 L 328.50 71.27 L 332.01 72.50 C333.94,73.18 338.90,75.15 343.04,76.87 L 350.56 80.01 L 349.84 89.12 C349.44,94.13 348.88,99.42 348.59,100.87 C348.16,103.12 348.86,104.12 353.48,107.75 C356.45,110.09 359.25,111.99 359.69,111.97 C360.72,111.93 369.93,100.24 371.30,97.25 C371.86,96.01 373.10,95.00 374.04,95.00 C376.26,95.00 376.97,92.19 376.98,83.50 C376.98,75.20 376.08,69.00 374.87,69.00 C374.39,69.00 374.00,70.57 374.00,72.50 C374.00,74.43 373.66,75.98 373.25,75.96 C372.84,75.94 370.94,74.59 369.04,72.96 C365.57,70.00 361.00,68.98 361.00,71.17 C361.00,71.81 360.74,72.08 360.43,71.76 C360.12,71.45 360.41,70.32 361.07,69.26 C362.66,66.71 361.73,62.04 358.08,54.33 C356.48,50.94 355.43,47.91 355.75,47.58 C356.07,47.26 357.93,47.00 359.88,47.00 L 363.42 47.00 L 359.96 44.05 C354.93,39.77 346.20,35.29 339.46,33.53 C332.08,31.61 318.12,31.56 310.96,33.42 C294.58,37.70 281.00,49.55 275.08,64.75 C273.09,69.83 273.49,71.53 275.96,68.55 C276.62,67.75 278.81,66.57 280.83,65.93 C282.85,65.28 285.57,63.80 286.89,62.63 L 289.27 60.50 L 288.04 62.86 C287.02,64.82 287.18,66.85 288.96,74.54 C290.14,79.66 291.65,84.28 292.30,84.82 C292.96,85.36 295.52,86.27 298.00,86.85 L 302.50 87.90 L 291.55 87.50 L 288.22 93.00 C286.39,96.03 284.65,99.66 284.35,101.08 L 283.82 103.67 L 280.28 100.58 C278.33,98.89 275.85,96.15 274.78,94.50 L 272.82 91.50 L 273.45 95.95 C274.46,102.97 279.59,112.49 286.18,119.54 C289.51,123.09 292.63,126.00 293.11,126.00 C293.60,126.00 294.00,124.65 294.00,123.00 C294.00,119.57 294.12,119.55 303.00,121.50 C312.37,123.56 315.70,123.42 317.05,120.91 C317.66,119.77 318.39,119.05 318.66,119.33 C318.94,119.60 318.67,120.75 318.07,121.87 C317.11,123.67 317.67,124.48 322.86,128.80 ZM 622.38 123.22 C624.03,125.69 624.61,125.89 628.84,125.40 C636.50,124.53 637.89,124.07 638.97,122.06 C640.19,119.77 637.64,116.54 635.32,117.43 C634.54,117.73 632.87,117.31 631.62,116.49 C630.37,115.66 629.14,115.20 628.89,115.45 C628.64,115.70 628.31,112.83 628.16,109.08 C627.96,104.28 628.29,101.85 629.27,100.87 C630.03,100.11 630.47,98.92 630.25,98.24 C629.96,97.39 631.10,97.00 633.86,97.00 C638.60,97.00 639.44,96.07 637.85,92.57 C637.05,90.80 635.90,90.00 634.17,90.00 C630.75,90.00 628.00,87.28 628.00,83.90 C628.00,80.49 624.37,77.45 622.32,79.15 C621.59,79.75 621.00,80.73 621.00,81.32 C621.00,82.54 615.89,90.33 614.75,90.83 C614.34,91.02 614.00,91.86 614.00,92.71 C614.00,93.92 613.70,94.00 612.59,93.08 C611.82,92.43 608.67,90.62 605.59,89.05 L 600.01 86.19 L 594.75 88.17 C588.84,90.40 587.76,91.21 587.33,93.73 C587.17,94.71 586.51,98.20 585.87,101.51 C582.85,117.05 589.41,125.97 602.98,124.74 C610.24,124.08 611.00,123.63 611.00,119.96 L 611.00 117.03 L 605.04 117.65 C598.40,118.35 594.00,116.53 594.00,113.09 C594.00,110.18 602.85,108.78 607.07,111.04 C608.41,111.75 609.61,111.74 611.00,111.00 C612.69,110.10 613.00,108.91 613.00,103.40 L 613.00 96.87 L 616.25 97.19 L 619.50 97.50 L 620.04 109.00 C620.45,117.76 621.01,121.15 622.38,123.22 ZM 51.50 137.46 C34.29,138.94 32.88,138.80 32.41,135.58 C32.28,134.72 32.52,133.79 32.95,133.53 C33.37,133.27 38.62,132.99 44.61,132.90 C56.21,132.73 61.00,131.35 61.00,128.17 C61.00,127.18 61.66,125.51 62.47,124.44 C63.28,123.37 63.95,121.28 63.97,119.79 C63.99,118.22 64.76,116.66 65.80,116.10 C66.80,115.57 72.71,115.03 78.94,114.90 C92.11,114.61 93.00,115.14 93.00,123.19 L 93.00 128.75 C93.00,129.16 91.76,129.50 90.25,129.50 C87.78,129.50 87.50,129.14 87.45,126.00 C87.41,123.13 86.99,122.44 85.11,122.17 C82.77,121.83 82.73,122.39 84.71,127.67 C85.30,129.24 82.45,130.61 77.24,131.27 C74.42,131.63 72.33,132.61 71.07,134.16 C69.56,136.03 68.10,136.54 63.84,136.68 C60.90,136.77 55.35,137.13 51.50,137.46 ZM 325.11 0.00 L 555.13 0.00 L 554.81 3.15 C554.64,4.88 553.83,6.61 553.00,6.99 C548.43,9.10 547.47,9.90 547.19,11.80 C546.80,14.43 545.04,14.99 536.93,15.11 C530.23,15.22 522.52,13.65 521.48,11.97 C521.15,11.44 519.58,11.00 517.99,11.00 C516.23,11.00 514.11,10.02 512.59,8.50 C511.06,6.97 508.95,6.00 507.15,6.00 C504.09,6.00 502.63,4.13 503.64,1.50 C504.15,0.17 483.90,0.00 325.11,0.00 ZM 305.11 50.02 C299.98,50.00 299.48,50.24 294.86,54.86 C292.19,57.53 290.00,59.45 290.00,59.14 C290.00,58.82 292.41,56.07 295.36,53.03 C299.20,49.07 301.08,46.17 301.97,42.83 C303.32,37.77 304.51,36.93 313.00,35.05 C322.59,32.92 330.96,34.35 338.09,39.35 C340.03,40.71 339.94,40.85 335.81,42.88 C333.44,44.04 329.64,46.73 327.36,48.85 L 323.23 52.71 L 316.86 51.37 C313.36,50.64 308.07,50.03 305.11,50.02 ZM 237.75 106.01 C236.51,106.02 234.60,106.20 233.50,106.42 C232.40,106.63 230.82,106.66 230.00,106.47 C229.18,106.29 226.88,105.87 224.89,105.55 C218.98,104.59 212.47,99.58 209.56,93.75 C207.47,89.55 207.00,87.18 207.00,80.77 C207.00,68.95 210.52,62.45 219.50,57.70 C222.73,55.99 225.72,55.51 235.00,55.19 C241.32,54.98 248.07,55.27 250.00,55.84 C252.69,56.63 251.04,56.74 242.89,56.30 C235.49,55.90 232.08,56.07 231.59,56.86 C231.20,57.49 229.82,58.00 228.51,58.00 C227.21,58.00 225.45,58.69 224.61,59.54 C223.76,60.38 222.82,61.02 222.52,60.95 C220.71,60.55 213.93,62.34 214.92,62.95 C215.75,63.46 215.34,64.41 213.57,66.09 C212.18,67.42 211.03,68.95 211.03,69.50 C211.03,70.05 211.47,69.82 212.00,69.00 C212.53,68.18 212.98,68.01 212.98,68.63 C213.00,69.98 210.04,72.62 209.90,71.37 C209.72,69.80 208.20,75.44 208.11,78.00 C208.05,79.92 208.25,80.16 208.96,79.03 C209.76,77.77 209.99,77.81 210.57,79.31 C210.93,80.27 210.98,82.36 210.66,83.94 C210.07,86.89 211.92,89.68 213.50,88.24 C213.95,87.83 213.95,88.14 213.50,88.92 C212.91,89.93 213.09,90.18 214.11,89.79 C215.25,89.35 215.54,90.30 215.53,94.26 C215.51,99.10 215.62,99.29 218.50,99.60 C220.67,99.83 221.08,99.66 219.99,98.97 C218.82,98.23 219.03,98.01 221.00,97.94 C222.38,97.88 222.92,97.61 222.21,97.32 C221.28,96.95 221.54,96.27 223.11,94.90 C224.84,93.40 226.87,93.00 232.65,93.00 L 240.00 93.00 L 240.00 99.50 C240.00,105.57 239.85,106.00 237.75,106.01 ZM 422.45 90.08 C421.54,91.56 406.00,91.24 405.98,89.75 C405.96,87.94 414.32,57.99 414.74,58.41 C415.65,59.32 422.95,89.28 422.45,90.08 ZM 195.28 40.60 C192.36,42.47 189.76,44.00 189.52,44.00 C189.27,44.00 188.59,43.11 188.01,42.02 C187.19,40.49 187.25,40.16 188.27,40.55 C189.00,40.83 190.67,39.92 191.97,38.53 C193.28,37.14 195.19,36.00 196.22,36.00 C197.25,36.00 199.22,34.88 200.59,33.50 C202.31,31.78 204.19,31.00 206.60,31.00 C208.52,31.00 211.48,30.29 213.16,29.42 C214.85,28.55 218.76,27.64 221.86,27.40 C225.87,27.09 226.92,27.24 225.50,27.91 C224.11,28.57 226.76,28.85 234.21,28.85 C240.10,28.85 245.72,29.32 246.71,29.90 L 246.82 29.96 C247.40,30.30 247.82,30.54 247.80,30.71 C247.73,31.14 244.92,31.11 235.17,31.01 L 234.45 31.01 C217.48,30.84 206.22,33.60 195.28,40.60 ZM 37.12 96.93 C36.42,99.45 34.87,100.54 33.69,99.35 C33.31,98.98 33.00,96.54 33.00,93.95 C33.00,90.28 33.39,89.13 34.77,88.77 C37.05,88.17 37.49,83.39 35.53,80.40 C34.37,78.64 34.28,77.49 35.12,75.07 C35.71,73.38 36.83,72.00 37.60,72.00 C38.37,72.00 39.00,71.59 39.00,71.09 C39.00,70.60 39.90,70.42 41.00,70.71 C42.74,71.16 43.00,72.07 43.00,77.62 C43.00,83.19 42.68,84.29 40.50,86.19 C38.92,87.56 37.96,89.49 37.90,91.43 C37.85,93.12 37.50,95.59 37.12,96.93 ZM 225.00 82.50 C225.00,88.28 224.66,92.99 224.25,92.98 C222.87,92.95 219.15,88.02 220.08,87.45 C220.59,87.14 221.00,86.26 221.00,85.51 C221.00,84.75 221.52,82.86 222.15,81.32 C223.72,77.48 223.76,72.78 222.25,71.18 C219.15,67.90 222.76,61.23 226.81,62.74 L 229.11 63.59 L 227.06 65.45 C225.93,66.47 225.00,68.16 225.00,69.19 C225.00,70.74 225.34,70.89 226.93,70.04 C229.08,68.88 233.32,68.71 236.75,69.63 C241.21,70.83 238.86,72.00 232.00,72.00 L 225.00 72.00 ZM 46.71 144.37 C46.50,145.02 43.50,145.63 39.66,145.80 C34.25,146.04 32.85,145.78 32.35,144.48 C31.38,141.94 33.53,140.67 39.07,140.50 C44.24,140.34 47.50,141.99 46.71,144.37 ZM 82.41 86.15 C81.67,87.34 74.00,87.22 74.00,86.02 C74.00,84.28 77.33,76.52 78.38,75.82 C80.12,74.65 81.23,76.12 80.68,78.87 C80.38,80.34 80.77,82.33 81.55,83.40 C82.31,84.44 82.70,85.68 82.41,86.15 ZM 602.55 102.26 C600.78,104.69 596.33,104.49 594.97,101.94 C593.49,99.18 595.31,97.00 599.09,97.00 C602.59,97.00 604.39,99.74 602.55,102.26 ZM 113.13 39.15 C112.59,40.59 111.33,41.62 110.01,41.72 C108.13,41.87 107.90,41.52 108.45,39.33 C108.81,37.92 109.36,35.47 109.67,33.88 C109.99,32.30 110.87,31.00 111.62,31.00 C112.38,31.00 112.91,31.34 112.80,31.75 C112.69,32.16 112.93,33.45 113.33,34.62 C113.73,35.78 113.64,37.82 113.13,39.15 ZM 601.80 150.80 C601.14,151.46 600.33,152.00 600.00,152.00 C598.80,152.00 597.00,149.56 597.00,147.92 C597.00,147.00 597.67,145.68 598.50,145.00 C601.54,142.48 604.65,147.95 601.80,150.80 ZM 440.32 46.25 C440.56,48.86 440.60,51.00 440.42,51.00 C440.15,51.00 436.00,38.39 436.00,37.56 C436.00,37.44 436.69,37.33 437.52,37.33 C439.16,37.33 439.64,38.86 440.32,46.25 ZM 60.75 142.75 C61.04,143.61 59.90,144.00 57.08,144.00 C52.86,144.00 51.66,142.36 54.29,140.18 C55.77,138.95 60.06,140.66 60.75,142.75 ZM 552.50 88.00 C550.80,91.29 548.30,91.94 547.31,89.36 C546.58,87.47 549.37,85.00 552.22,85.00 C553.93,85.00 553.95,85.19 552.50,88.00 ZM 408.74 85.75 C409.00,86.44 410.09,87.00 411.17,87.00 C412.77,87.00 413.07,86.42 412.81,83.83 C412.64,82.08 411.94,80.47 411.25,80.24 C409.85,79.78 408.00,83.82 408.74,85.75 ZM 262.50 56.00 C262.84,56.55 262.64,57.00 262.06,57.00 C261.37,57.00 261.07,53.27 261.19,46.25 C261.33,38.69 261.49,37.42 261.75,41.96 C261.94,45.52 262.51,48.91 263.01,49.51 C264.11,50.84 263.90,55.00 262.73,55.00 C262.26,55.00 262.16,55.45 262.50,56.00 ZM 124.53 92.27 C124.85,93.52 124.68,95.66 124.15,97.02 L 123.21 99.50 L 122.08 96.62 C120.91,93.64 121.45,90.00 123.05,90.00 C123.55,90.00 124.22,91.02 124.53,92.27 ZM 458.24 95.92 C459.43,98.22 459.52,98.09 459.81,93.56 C460.10,89.00 459.62,87.05 458.47,88.20 C457.20,89.46 457.08,93.69 458.24,95.92 ZM 17.82 113.65 C17.62,115.44 16.83,116.61 15.68,116.83 C14.20,117.11 13.91,116.63 14.18,114.35 C14.38,112.56 15.17,111.39 16.32,111.17 C17.80,110.89 18.09,111.37 17.82,113.65 ZM 583.24 22.75 C582.97,23.59 584.00,24.00 586.42,24.00 C589.00,24.00 590.00,23.56 590.00,22.44 C590.00,20.52 583.88,20.80 583.24,22.75 ZM 104.00 33.06 C104.00,34.68 103.56,36.00 103.02,36.00 C101.77,36.00 100.60,31.46 101.47,30.04 C102.58,28.25 104.00,29.94 104.00,33.06 ZM 563.82 84.75 C564.07,86.48 563.65,87.00 562.00,87.00 C560.35,87.00 559.93,86.48 560.18,84.75 C560.36,83.51 561.17,82.50 562.00,82.50 C562.83,82.50 563.64,83.51 563.82,84.75 ZM 485.50 136.00 C485.84,136.55 486.96,137.00 488.00,137.00 C489.04,137.00 490.16,136.55 490.50,136.00 C490.86,135.42 489.82,135.00 488.00,135.00 C486.18,135.00 485.14,135.42 485.50,136.00 ZM 271.00 88.00 C271.00,89.10 271.45,90.00 272.00,90.00 C272.55,90.00 273.00,89.10 273.00,88.00 C273.00,86.90 272.55,86.00 272.00,86.00 C271.45,86.00 271.00,86.90 271.00,88.00 ZM 60.50 25.00 C60.84,25.55 61.79,26.00 62.62,26.00 C63.44,26.00 63.84,25.55 63.50,25.00 C63.16,24.45 62.21,24.00 61.38,24.00 C60.56,24.00 60.16,24.45 60.50,25.00 ZM 419.00 125.00 C419.00,125.55 418.55,126.00 418.00,126.00 C417.45,126.00 417.00,125.55 417.00,125.00 C417.00,124.45 417.45,124.00 418.00,124.00 C418.55,124.00 419.00,124.45 419.00,125.00 ZM 191.67 122.33 C192.03,122.70 192.57,122.77 192.85,122.48 C193.13,122.20 192.83,121.43 192.18,120.78 C191.47,120.07 191.00,120.01 191.00,120.63 C191.00,121.20 191.30,121.97 191.67,122.33 Z" fill="rgb(13,23,63)"/>
<path d="M 39.00 161.50 C38.32,160.68 37.00,160.00 36.08,160.00 C33.88,160.00 32.00,158.06 32.00,155.80 C32.00,154.81 31.33,154.00 30.50,154.00 C29.67,154.00 29.00,154.89 29.00,156.00 C29.00,157.75 28.33,158.00 23.56,158.00 C20.57,158.00 17.91,157.66 17.66,157.25 C17.41,156.84 16.88,150.60 16.48,143.39 L 15.76 130.28 L 18.63 129.47 C20.21,129.03 21.83,128.74 22.24,128.83 C23.68,129.14 29.00,117.02 29.00,113.42 C29.00,110.66 29.35,109.92 30.45,110.34 C31.44,110.72 31.71,110.42 31.32,109.38 C30.90,108.31 30.42,108.18 29.67,108.93 C29.08,109.52 27.83,110.00 26.88,110.00 C24.81,110.00 23.80,113.83 24.13,120.36 C24.26,122.89 24.06,125.27 23.69,125.65 C23.31,126.02 23.00,125.78 23.00,125.11 C23.00,124.43 22.55,124.16 22.00,124.50 C21.45,124.84 20.00,124.41 18.78,123.56 C15.64,121.36 14.31,121.61 13.58,124.54 C12.89,127.30 11.00,126.99 11.00,124.12 C11.00,123.14 9.85,121.27 8.45,119.96 C5.91,117.57 5.91,117.54 6.30,103.03 C6.51,95.04 7.23,86.47 7.90,84.00 C8.57,81.53 9.38,78.23 9.69,76.68 C9.99,75.13 11.09,73.34 12.12,72.69 C13.16,72.05 14.00,70.68 14.00,69.66 C14.00,67.21 19.71,61.79 20.39,63.58 C20.67,64.29 22.60,65.01 24.69,65.19 C27.50,65.42 28.76,66.09 29.48,67.73 C30.72,70.57 32.37,71.19 35.51,70.00 C37.21,69.35 38.00,68.29 38.00,66.65 C38.00,63.47 40.49,61.33 42.38,62.90 C43.47,63.80 44.41,63.29 46.88,60.49 C48.60,58.53 50.00,56.29 50.00,55.51 C50.00,54.74 50.57,53.74 51.27,53.30 C52.98,52.22 55.00,47.46 55.00,44.50 C55.00,41.78 56.94,37.00 58.05,37.00 C58.45,37.00 59.05,35.93 59.38,34.62 C59.71,33.32 61.12,31.50 62.52,30.58 C63.92,29.66 64.80,28.48 64.47,27.96 C64.15,27.43 64.33,27.00 64.88,27.00 C65.43,27.00 66.14,27.42 66.45,27.92 C66.77,28.43 68.71,28.67 70.76,28.44 C72.82,28.22 76.67,28.53 79.33,29.14 C84.86,30.40 95.12,28.77 97.16,26.31 C97.81,25.53 99.73,24.30 101.42,23.58 C103.11,22.86 106.52,20.42 109.00,18.14 C111.47,15.86 113.84,14.00 114.25,14.00 C114.66,14.00 115.00,12.50 115.00,10.67 C115.00,8.46 115.80,6.60 117.38,5.11 C119.65,2.98 120.26,2.91 130.75,3.57 C141.12,4.23 141.85,4.15 143.87,2.13 L 146.00 0.00 L 325.11 0.00 C483.90,0.00 504.15,0.17 503.64,1.50 C502.63,4.13 504.09,6.00 507.15,6.00 C508.95,6.00 511.06,6.97 512.59,8.50 C514.11,10.02 516.23,11.00 517.99,11.00 C519.58,11.00 521.15,11.44 521.48,11.97 C522.52,13.65 530.23,15.22 536.93,15.11 C545.04,14.99 546.80,14.43 547.19,11.80 C547.47,9.90 548.43,9.10 553.00,6.99 C553.83,6.61 554.64,4.88 554.81,3.15 L 555.13 0.00 L 568.22 0.00 L 567.71 3.25 C566.95,8.20 564.61,13.73 562.18,16.31 C560.48,18.12 560.00,19.85 560.00,24.19 C560.00,31.40 560.94,32.12 569.29,31.34 C574.55,30.85 576.45,31.06 578.46,32.38 C581.52,34.39 581.66,36.34 579.00,39.73 C576.47,42.94 576.47,45.06 579.00,48.27 C580.45,50.11 581.00,52.33 581.00,56.29 C581.00,62.47 582.83,65.21 585.50,63.00 C586.33,62.32 587.00,60.97 587.00,60.00 C587.00,55.95 594.35,54.55 596.15,58.25 C596.62,59.21 597.38,60.78 597.84,61.73 C598.31,62.68 599.73,63.70 601.00,64.00 C604.19,64.75 605.81,67.49 604.39,69.75 C603.58,71.04 601.69,71.58 597.23,71.80 C590.56,72.12 589.55,72.84 588.55,78.00 C588.18,79.96 588.25,80.97 588.72,80.30 C589.25,79.54 590.08,79.43 591.00,80.00 C592.20,80.74 592.14,81.01 590.59,81.60 C589.29,82.10 588.23,81.63 587.01,80.01 C585.15,77.55 583.58,77.88 581.16,81.24 C580.13,82.67 579.01,82.97 576.28,82.53 C569.52,81.46 567.59,86.20 574.01,88.12 C576.22,88.78 578.48,89.87 579.04,90.55 C579.60,91.22 580.25,98.78 580.48,107.35 L 580.91 122.92 L 580.49 123.22 L 580.26 110.00 C579.99,95.25 579.06,92.48 573.70,90.58 C570.73,89.52 563.98,91.17 561.61,93.53 C560.31,94.83 560.06,94.77 559.50,93.00 C559.06,91.60 557.99,91.00 555.93,91.00 L 553.00 91.00 L 553.00 124.00 L 560.00 124.00 L 560.00 113.13 C560.00,103.66 560.26,101.93 562.07,99.63 C564.67,96.33 570.36,95.93 571.96,98.93 C572.53,100.00 573.00,106.10 573.00,112.49 L 573.00 124.12 L 576.75 123.81 L 580.05 123.54 L 577.78 125.16 C576.05,126.39 574.97,126.85 575.38,126.20 C575.81,125.50 575.56,125.00 574.78,125.00 C572.62,125.00 570.31,121.58 570.70,118.94 C572.71,105.16 571.85,100.00 567.53,100.00 C564.17,100.00 563.00,101.99 563.00,107.70 C563.00,111.00 562.57,113.00 561.86,113.00 C561.08,113.00 560.89,114.69 561.27,118.34 C561.88,124.20 561.55,125.15 558.32,126.85 C555.35,128.41 554.72,128.32 552.18,125.95 L 549.99 123.91 L 542.78 129.41 L 539.92 125.95 C538.47,124.21 537.59,122.58 537.27,121.07 C537.57,121.93 538.22,122.74 539.22,123.44 C542.03,125.41 543.45,125.41 545.43,123.43 C550.12,118.74 543.75,112.21 538.83,116.65 C537.89,117.51 537.33,118.42 537.15,119.33 C537.34,117.08 538.97,115.16 542.01,113.64 C543.67,112.81 544.73,112.63 544.35,113.24 C543.91,113.96 544.28,114.11 545.45,113.66 C546.75,113.16 547.07,113.37 546.66,114.44 C546.31,115.37 546.58,115.71 547.42,115.39 C550.72,114.13 552.06,105.33 549.89,99.12 C548.98,96.50 548.40,96.05 546.64,96.60 C545.46,96.96 544.13,97.89 543.69,98.65 C543.02,99.80 542.37,99.69 540.03,98.02 C536.26,95.34 535.31,95.46 532.00,99.00 C529.23,101.96 529.07,102.00 518.77,102.00 C513.03,102.00 508.05,101.72 507.71,101.38 C507.37,101.03 508.03,99.99 509.18,99.06 C510.98,97.60 511.10,97.05 510.04,95.08 C509.16,93.43 508.17,92.92 506.47,93.25 C504.43,93.64 504.05,93.23 503.56,90.10 C503.25,88.12 502.77,75.93 502.51,63.00 C501.98,37.31 501.66,34.23 499.30,32.00 C498.43,31.17 498.02,31.05 498.40,31.71 C498.45,31.81 498.50,32.25 498.56,33.00 L 469.00 33.00 L 469.00 129.03 L 468.93 84.26 C468.89,59.64 468.55,38.76 468.18,37.85 C467.60,36.45 467.31,36.42 466.21,37.60 C465.50,38.37 465.31,39.00 465.78,39.00 C466.92,39.00 466.49,58.38 465.23,63.69 C464.69,66.00 464.35,71.17 464.49,75.19 C464.73,82.28 463.74,86.58 462.10,85.56 C461.66,85.29 460.48,82.91 459.48,80.28 C457.50,75.04 454.70,72.00 451.87,72.00 C450.70,72.00 449.80,71.01 449.38,69.25 C449.02,67.74 448.27,65.93 447.72,65.23 C447.17,64.53 446.99,63.68 447.32,63.35 C447.65,63.02 447.30,61.26 446.55,59.45 C445.79,57.64 445.36,55.90 445.59,55.58 C445.81,55.26 445.71,55.22 445.35,55.48 C444.99,55.75 443.87,55.00 442.85,53.83 C441.83,52.65 441.00,51.92 441.00,52.20 C441.00,52.62 445.86,67.92 451.12,84.24 C446.36,69.52 442.20,57.01 441.54,55.50 C440.81,53.85 439.46,49.80 438.54,46.50 C437.61,43.20 436.13,38.81 435.24,36.75 L 433.62 33.00 L 397.39 33.00 L 389.73 56.75 C384.37,73.33 382.72,78.99 382.53,82.82 C382.54,78.84 383.93,74.08 389.43,57.35 C393.46,45.11 396.49,34.82 396.17,34.50 C395.54,33.87 390.03,44.73 390.01,46.63 C390.01,47.25 389.35,48.29 388.55,48.95 C387.76,49.61 386.37,52.37 385.47,55.08 C383.65,60.57 381.48,61.48 380.53,57.14 C379.78,53.71 376.55,50.00 374.31,50.00 C373.43,50.00 370.80,48.44 368.48,46.54 C366.16,44.63 363.88,43.40 363.41,43.79 C362.95,44.18 363.18,43.70 363.92,42.73 C365.09,41.21 365.07,41.04 363.79,41.53 C362.87,41.88 361.65,41.12 360.62,39.55 C359.71,38.15 358.49,37.00 357.92,37.00 C357.34,37.00 354.51,35.88 351.61,34.51 C348.72,33.14 344.81,31.73 342.92,31.38 C341.04,31.03 336.98,29.92 333.89,28.91 C329.57,27.50 327.11,27.26 323.18,27.88 C320.36,28.33 317.94,28.37 317.78,27.97 C317.63,27.57 313.90,28.35 309.50,29.70 C301.43,32.17 299.17,32.78 297.69,32.92 C297.25,32.97 297.21,33.56 297.60,34.25 C298.00,34.94 297.96,35.18 297.53,34.79 C296.45,33.81 292.80,35.87 293.52,37.04 C293.84,37.55 293.41,37.71 292.55,37.38 C291.70,37.05 291.00,37.28 291.00,37.89 C291.00,38.50 290.34,39.00 289.53,39.00 C288.72,39.00 287.06,40.35 285.84,42.00 C284.62,43.65 283.15,44.96 282.56,44.92 C281.98,44.88 282.06,44.62 282.75,44.34 C283.44,44.06 284.00,43.37 284.00,42.79 C284.00,42.16 283.41,42.24 282.51,42.99 C281.69,43.67 281.24,44.58 281.50,45.00 C281.77,45.43 280.30,47.52 278.24,49.64 C272.28,55.78 270.24,59.20 269.47,64.35 C268.67,69.66 266.87,71.10 264.13,68.62 C261.94,66.63 260.10,66.61 257.56,68.53 C256.37,69.43 253.07,70.06 249.06,70.15 C241.81,70.32 243.23,70.59 256.25,71.54 L 262.54 72.00 L 232.00 72.00 C238.86,72.00 241.21,70.83 236.75,69.63 C233.32,68.71 229.08,68.88 226.93,70.04 C225.34,70.89 225.00,70.74 225.00,69.19 C225.00,68.16 225.93,66.47 227.06,65.45 L 229.11 63.59 L 226.81 62.74 C222.76,61.23 219.15,67.90 222.25,71.18 C223.76,72.78 223.72,77.48 222.15,81.32 C221.52,82.86 221.00,84.75 221.00,85.51 C221.00,86.26 220.59,87.14 220.08,87.45 C219.15,88.02 222.87,92.95 224.25,92.98 C224.66,92.99 225.00,88.28 225.00,82.50 L 225.00 72.00 L 226.00 72.00 L 226.00 93.00 L 232.65 93.00 C226.87,93.00 224.84,93.40 223.11,94.90 C221.54,96.27 221.28,96.95 222.21,97.32 C222.92,97.61 222.38,97.88 221.00,97.94 C219.03,98.01 218.82,98.23 219.99,98.97 C221.08,99.66 220.67,99.83 218.50,99.60 C215.62,99.29 215.51,99.10 215.53,94.26 C215.54,90.30 215.25,89.35 214.11,89.79 C213.09,90.18 212.91,89.93 213.50,88.92 C213.95,88.14 213.95,87.83 213.50,88.24 C211.92,89.68 210.07,86.89 210.66,83.94 C210.98,82.36 210.93,80.27 210.57,79.31 C209.99,77.81 209.76,77.77 208.96,79.03 C208.25,80.16 208.05,79.92 208.11,78.00 C208.20,75.44 209.72,69.80 209.90,71.37 C210.04,72.62 213.00,69.98 212.98,68.63 C212.98,68.01 212.53,68.18 212.00,69.00 C211.47,69.82 211.03,70.05 211.03,69.50 C211.03,68.95 212.18,67.42 213.57,66.09 C215.34,64.41 215.75,63.46 214.92,62.95 C213.93,62.34 220.71,60.55 222.52,60.95 C222.82,61.02 223.76,60.38 224.61,59.54 C225.45,58.69 227.21,58.00 228.51,58.00 C229.82,58.00 231.20,57.49 231.59,56.86 C232.08,56.07 235.49,55.90 242.89,56.30 C251.04,56.74 252.69,56.63 250.00,55.84 C249.83,55.79 249.63,55.74 249.39,55.70 C253.17,55.87 255.54,56.15 255.79,56.50 C256.18,57.05 257.29,57.56 258.25,57.64 C259.71,57.75 260.00,56.92 260.01,52.64 C260.01,49.81 260.30,44.51 260.64,40.86 L 261.27 34.22 L 255.88 33.02 C246.08,30.83 225.43,30.53 215.96,32.44 C201.23,35.41 190.25,42.32 183.56,52.53 C183.98,51.85 184.42,51.16 184.89,50.45 C187.03,47.18 188.52,44.08 188.22,43.57 C187.91,43.05 187.36,43.47 187.00,44.49 C186.41,46.17 186.29,46.19 185.71,44.68 C185.35,43.75 185.53,43.00 186.09,43.00 C186.66,43.00 186.81,42.50 186.43,41.89 C185.95,41.12 185.51,41.18 184.94,42.10 C184.50,42.82 184.37,43.79 184.66,44.26 C184.95,44.72 184.25,45.92 183.11,46.90 C181.97,47.89 181.37,49.07 181.77,49.51 C182.17,49.96 181.73,50.04 180.78,49.70 C179.84,49.36 178.79,49.53 178.46,50.06 C178.13,50.59 177.33,50.71 176.68,50.30 C176.03,49.90 176.20,50.68 177.05,52.04 C178.66,54.58 178.56,58.47 176.92,57.45 C176.42,57.14 176.00,57.36 176.00,57.94 C176.00,58.52 175.49,59.00 174.87,59.00 C174.24,59.00 172.73,60.16 171.51,61.58 C168.84,64.69 168.45,69.14 168.63,94.00 C168.81,117.50 169.32,118.84 177.32,116.82 C180.46,116.02 185.28,117.73 184.31,119.30 C183.97,119.86 184.16,120.02 184.73,119.67 C185.30,119.32 187.35,120.11 189.30,121.43 C191.25,122.75 193.10,123.57 193.42,123.25 C193.74,122.93 194.00,123.19 194.00,123.83 C194.00,124.47 194.90,125.00 196.00,125.00 C197.10,125.00 198.00,125.43 198.00,125.96 C198.00,130.16 230.95,135.51 241.13,132.97 C243.54,132.38 246.85,131.73 248.50,131.53 C250.15,131.34 253.94,130.89 256.92,130.54 C262.75,129.86 264.79,129.09 264.97,127.50 C265.35,124.20 266.35,122.10 267.28,122.67 C267.94,123.08 268.10,122.71 267.71,121.69 C267.01,119.87 269.64,116.66 271.10,117.56 C271.61,117.88 273.26,118.36 274.77,118.63 C278.09,119.23 281.12,121.95 283.60,126.55 C284.62,128.45 285.95,130.00 286.55,130.00 C287.16,130.00 288.72,131.13 290.02,132.52 C291.32,133.90 293.98,135.47 295.94,136.01 C297.90,136.55 303.61,138.14 308.63,139.53 C313.66,140.93 318.16,141.99 318.63,141.88 C319.11,141.77 320.17,141.94 321.00,142.26 C324.37,143.56 325.61,143.67 327.80,142.86 C329.07,142.39 331.97,141.78 334.26,141.49 C336.54,141.20 340.00,140.55 341.95,140.05 C343.90,139.55 348.20,138.82 351.50,138.43 C358.53,137.60 364.68,135.60 367.18,133.34 C368.66,132.00 370.63,131.82 378.73,132.26 C386.22,132.67 389.25,132.45 391.74,131.29 C395.82,129.39 401.00,124.15 401.00,121.92 C401.00,119.79 403.00,119.00 408.33,119.01 C414.22,119.03 416.97,119.92 416.32,121.60 C415.97,122.52 416.48,123.00 417.81,123.00 C418.92,123.00 420.01,122.48 420.22,121.84 C420.88,119.85 425.99,121.83 426.99,124.48 C427.50,125.81 429.17,127.70 430.71,128.67 C432.24,129.65 433.74,130.78 434.03,131.18 C434.10,131.27 434.15,131.35 434.21,131.42 C434.69,131.98 435.85,131.98 450.58,131.93 L 450.58 131.93 L 452.34 131.93 C460.87,131.90 465.96,132.25 465.60,132.84 C465.24,133.42 467.35,133.61 471.01,133.34 C474.83,133.05 477.00,133.27 477.00,133.94 C477.00,134.52 477.98,135.00 479.17,135.00 C480.36,135.00 481.07,135.26 480.75,135.58 C480.43,135.91 480.90,137.03 481.80,138.08 C482.99,139.46 484.75,140.00 488.11,140.00 C491.98,140.00 493.05,139.58 494.41,137.50 C495.89,135.24 496.70,135.00 502.82,135.00 C506.55,135.00 510.05,134.55 510.59,134.01 C512.92,131.68 530.97,131.62 529.54,133.94 C529.26,134.39 530.49,135.09 532.27,135.51 C537.23,136.66 538.27,136.66 541.50,135.44 C543.15,134.82 545.40,134.49 546.50,134.72 C547.60,134.94 550.65,135.38 553.28,135.69 C556.68,136.10 558.60,136.95 559.92,138.63 C561.52,140.66 562.66,141.00 567.93,141.00 C571.53,141.00 574.99,141.59 576.29,142.42 C580.00,144.80 589.57,145.51 592.46,143.62 C596.05,141.26 604.52,141.48 607.73,144.00 C609.13,145.10 610.92,146.00 611.70,146.00 C613.59,146.00 613.01,150.06 611.00,150.99 C605.73,153.43 605.50,153.72 605.20,158.35 L 604.89 163.00 L 322.57 163.00 C72.83,163.00 40.10,162.83 39.00,161.50 ZM 31.00 126.58 C31.00,127.73 33.51,128.00 44.42,128.00 L 57.84 128.00 L 60.51 119.98 L 63.18 111.95 L 78.76 112.23 L 94.35 112.50 L 99.06 128.00 L 113.53 128.00 C121.49,128.00 128.00,127.61 128.00,127.13 C128.00,125.62 98.25,34.11 97.46,33.17 C97.31,33.00 89.49,32.60 80.09,32.30 L 63.01 31.74 L 61.37 35.62 C58.82,41.67 31.00,124.99 31.00,126.58 ZM 134.54 117.75 L 135.19 128.00 L 163.77 128.00 L 164.46 95.75 C164.84,78.01 165.00,56.53 164.82,48.00 L 164.50 32.50 L 134.50 32.50 L 134.19 70.00 C134.02,90.62 134.18,112.11 134.54,117.75 ZM 51.50 137.46 C55.35,137.13 60.90,136.77 63.84,136.68 C68.10,136.54 69.56,136.03 71.07,134.16 C72.33,132.61 74.42,131.63 77.24,131.27 C82.45,130.61 85.30,129.24 84.71,127.67 C82.73,122.39 82.77,121.83 85.11,122.17 C86.99,122.44 87.41,123.13 87.45,126.00 C87.50,129.14 87.78,129.50 90.25,129.50 C91.76,129.50 93.00,129.16 93.00,128.75 L 93.00 123.19 C93.00,115.14 92.11,114.61 78.94,114.90 C72.71,115.03 66.80,115.57 65.80,116.10 C64.76,116.66 63.99,118.22 63.97,119.79 C63.95,121.28 63.28,123.37 62.47,124.44 C61.66,125.51 61.00,127.18 61.00,128.17 C61.00,131.35 56.21,132.73 44.61,132.90 C38.62,132.99 33.37,133.27 32.95,133.53 C32.52,133.79 32.28,134.72 32.41,135.58 C32.88,138.80 34.29,138.94 51.50,137.46 ZM 87.60 89.25 C88.08,90.83 87.24,91.00 79.07,91.00 C71.09,91.00 70.00,90.79 70.03,89.25 C70.07,85.91 78.83,57.51 79.35,59.00 C79.64,59.83 81.49,66.57 83.47,74.00 C85.45,81.43 87.31,88.29 87.60,89.25 ZM 622.38 123.22 C621.27,121.55 620.69,119.01 620.30,113.48 C620.97,121.36 622.40,123.54 626.35,124.30 C628.53,124.73 634.88,124.09 636.25,123.31 C636.66,123.07 637.00,121.78 637.00,120.44 C637.00,118.26 636.57,118.00 633.04,118.00 C627.75,118.00 627.07,116.44 627.74,105.74 L 628.28 97.00 L 632.64 97.00 C636.82,97.00 637.00,96.87 637.00,94.00 C637.00,91.11 636.83,91.00 632.50,91.00 L 628.00 91.00 L 628.00 86.67 C628.00,81.36 627.52,80.82 624.15,82.30 C620.78,83.78 620.03,84.85 620.02,88.25 C620.00,90.51 619.56,91.00 617.50,91.00 C615.67,91.00 615.00,91.53 615.00,93.00 C615.00,94.10 614.97,95.34 614.94,95.75 C614.91,96.16 615.92,96.74 617.19,97.04 C617.58,97.13 617.90,97.22 618.18,97.37 L 616.25 97.19 L 613.00 96.87 L 613.00 103.40 C613.00,108.91 612.69,110.10 611.00,111.00 C609.61,111.74 608.41,111.75 607.07,111.04 C606.09,110.51 604.86,110.18 603.54,110.03 C604.08,110.02 604.65,110.01 605.25,110.01 L 612.00 110.00 L 611.99 104.25 C611.98,101.09 611.41,97.38 610.72,96.00 C607.89,90.32 597.57,88.43 591.42,92.46 C588.77,94.19 586.82,97.50 585.86,101.55 L 585.87 101.51 C586.51,98.20 587.17,94.71 587.33,93.73 C587.76,91.21 588.84,90.40 594.75,88.17 L 600.01 86.19 L 605.59 89.05 C608.67,90.62 611.82,92.43 612.59,93.08 C613.70,94.00 614.00,93.92 614.00,92.71 C614.00,91.86 614.34,91.02 614.75,90.83 C615.89,90.33 621.00,82.54 621.00,81.32 C621.00,80.73 621.59,79.75 622.32,79.15 C624.37,77.45 628.00,80.49 628.00,83.90 C628.00,87.28 630.75,90.00 634.17,90.00 C635.90,90.00 637.05,90.80 637.85,92.57 C639.44,96.07 638.60,97.00 633.86,97.00 C631.10,97.00 629.96,97.39 630.25,98.24 C630.47,98.92 630.03,100.11 629.27,100.87 C628.29,101.85 627.96,104.28 628.16,109.08 C628.31,112.83 628.64,115.70 628.89,115.45 C629.14,115.20 630.37,115.66 631.62,116.49 C632.87,117.31 634.54,117.73 635.32,117.43 C637.64,116.54 640.19,119.77 638.97,122.06 C637.89,124.07 636.50,124.53 628.84,125.40 C624.61,125.89 624.03,125.69 622.38,123.22 ZM 195.28 40.60 C206.22,33.60 217.48,30.84 234.45,31.01 L 235.17 31.01 C244.92,31.11 247.73,31.14 247.80,30.71 C247.82,30.54 247.40,30.30 246.82,29.96 L 246.71 29.90 C245.72,29.32 240.10,28.85 234.21,28.85 C226.76,28.85 224.11,28.57 225.50,27.91 C226.92,27.24 225.87,27.09 221.86,27.40 C218.76,27.64 214.85,28.55 213.16,29.42 C211.48,30.29 208.52,31.00 206.60,31.00 C204.19,31.00 202.31,31.78 200.59,33.50 C199.22,34.88 197.25,36.00 196.22,36.00 C195.19,36.00 193.28,37.14 191.97,38.53 C190.67,39.92 189.00,40.83 188.27,40.55 C187.25,40.16 187.19,40.49 188.01,42.02 C188.59,43.11 189.27,44.00 189.52,44.00 C189.76,44.00 192.36,42.47 195.28,40.60 ZM 37.12 96.93 C37.50,95.59 37.85,93.12 37.90,91.43 C37.96,89.49 38.92,87.56 40.50,86.19 C42.68,84.29 43.00,83.19 43.00,77.62 C43.00,72.07 42.74,71.16 41.00,70.71 C39.90,70.42 39.00,70.60 39.00,71.09 C39.00,71.59 38.37,72.00 37.60,72.00 C36.83,72.00 35.71,73.38 35.12,75.07 C34.28,77.49 34.37,78.64 35.53,80.40 C37.49,83.39 37.05,88.17 34.77,88.77 C33.39,89.13 33.00,90.28 33.00,93.95 C33.00,96.54 33.31,98.98 33.69,99.35 C34.87,100.54 36.42,99.45 37.12,96.93 ZM 605.00 101.04 L 605.00 104.00 L 598.59 104.00 C592.45,104.00 592.21,103.91 592.73,101.75 C593.56,98.37 596.02,96.00 598.72,96.00 C602.77,96.00 605.00,97.79 605.00,101.04 ZM 46.71 144.37 C47.50,141.99 44.24,140.34 39.07,140.50 C33.53,140.67 31.38,141.94 32.35,144.48 C32.85,145.78 34.25,146.04 39.66,145.80 C43.50,145.63 46.50,145.02 46.71,144.37 ZM 82.41 86.15 C82.70,85.68 82.31,84.44 81.55,83.40 C80.77,82.33 80.38,80.34 80.68,78.87 C81.23,76.12 80.12,74.65 78.38,75.82 C77.33,76.52 74.00,84.28 74.00,86.02 C74.00,87.22 81.67,87.34 82.41,86.15 ZM 602.55 102.26 C604.39,99.74 602.59,97.00 599.09,97.00 C595.31,97.00 593.49,99.18 594.97,101.94 C596.33,104.49 600.78,104.69 602.55,102.26 ZM 113.13 39.15 C113.64,37.82 113.73,35.78 113.33,34.62 C112.93,33.45 112.69,32.16 112.80,31.75 C112.91,31.34 112.38,31.00 111.62,31.00 C110.87,31.00 109.99,32.30 109.67,33.88 C109.36,35.47 108.81,37.92 108.45,39.33 C107.90,41.52 108.13,41.87 110.01,41.72 C111.33,41.62 112.59,40.59 113.13,39.15 ZM 601.80 150.80 C604.65,147.95 601.54,142.48 598.50,145.00 C597.67,145.68 597.00,147.00 597.00,147.92 C597.00,149.56 598.80,152.00 600.00,152.00 C600.33,152.00 601.14,151.46 601.80,150.80 ZM 440.32 46.25 C439.64,38.86 439.16,37.33 437.52,37.33 C436.69,37.33 436.00,37.44 436.00,37.56 C436.00,38.39 440.15,51.00 440.42,51.00 C440.60,51.00 440.56,48.86 440.32,46.25 ZM 60.75 142.75 C60.06,140.66 55.77,138.95 54.29,140.18 C51.66,142.36 52.86,144.00 57.08,144.00 C59.90,144.00 61.04,143.61 60.75,142.75 ZM 552.50 88.00 C553.95,85.19 553.93,85.00 552.22,85.00 C549.37,85.00 546.58,87.47 547.31,89.36 C548.30,91.94 550.80,91.29 552.50,88.00 ZM 408.74 85.75 C408.00,83.82 409.85,79.78 411.25,80.24 C411.94,80.47 412.64,82.08 412.81,83.83 C413.07,86.42 412.77,87.00 411.17,87.00 C410.09,87.00 409.00,86.44 408.74,85.75 ZM 262.50 56.00 C262.16,55.45 262.26,55.00 262.73,55.00 C263.90,55.00 264.11,50.84 263.01,49.51 C262.51,48.91 261.94,45.52 261.75,41.96 C261.49,37.42 261.33,38.69 261.19,46.25 C261.07,53.27 261.37,57.00 262.06,57.00 C262.64,57.00 262.84,56.55 262.50,56.00 ZM 124.53 92.27 C124.22,91.02 123.55,90.00 123.05,90.00 C121.45,90.00 120.91,93.64 122.08,96.62 L 123.21 99.50 L 124.15 97.02 C124.68,95.66 124.85,93.52 124.53,92.27 ZM 458.24 95.92 C457.08,93.69 457.20,89.46 458.47,88.20 C459.62,87.05 460.10,89.00 459.81,93.56 C459.52,98.09 459.43,98.22 458.24,95.92 ZM 17.82 113.65 C18.09,111.37 17.80,110.89 16.32,111.17 C15.17,111.39 14.38,112.56 14.18,114.35 C13.91,116.63 14.20,117.11 15.68,116.83 C16.83,116.61 17.62,115.44 17.82,113.65 ZM 583.24 22.75 C583.88,20.80 590.00,20.52 590.00,22.44 C590.00,23.56 589.00,24.00 586.42,24.00 C584.00,24.00 582.97,23.59 583.24,22.75 ZM 104.00 33.06 C104.00,29.94 102.58,28.25 101.47,30.04 C100.60,31.46 101.77,36.00 103.02,36.00 C103.56,36.00 104.00,34.68 104.00,33.06 ZM 563.82 84.75 C563.64,83.51 562.83,82.50 562.00,82.50 C561.17,82.50 560.36,83.51 560.18,84.75 C559.93,86.48 560.35,87.00 562.00,87.00 C563.65,87.00 564.07,86.48 563.82,84.75 ZM 315.79 97.23 C312.79,92.18 310.98,90.00 309.86,90.00 C308.84,90.00 308.00,89.55 308.00,89.00 C308.00,88.45 309.09,88.00 310.43,88.00 C311.61,88.00 313.25,86.97 315.88,84.47 C312.85,87.73 310.86,90.02 311.11,90.01 C311.43,90.01 313.48,93.27 315.79,97.23 ZM 485.50 136.00 C485.14,135.42 486.18,135.00 488.00,135.00 C489.82,135.00 490.86,135.42 490.50,136.00 C490.16,136.55 489.04,137.00 488.00,137.00 C486.96,137.00 485.84,136.55 485.50,136.00 ZM 271.00 88.00 C271.00,86.90 271.45,86.00 272.00,86.00 C272.55,86.00 273.00,86.90 273.00,88.00 C273.00,89.10 272.55,90.00 272.00,90.00 C271.45,90.00 271.00,89.10 271.00,88.00 ZM 60.50 25.00 C60.16,24.45 60.56,24.00 61.38,24.00 C62.21,24.00 63.16,24.45 63.50,25.00 C63.84,25.55 63.44,26.00 62.62,26.00 C61.79,26.00 60.84,25.55 60.50,25.00 ZM 419.00 125.00 C419.00,124.45 418.55,124.00 418.00,124.00 C417.45,124.00 417.00,124.45 417.00,125.00 C417.00,125.55 417.45,126.00 418.00,126.00 C418.55,126.00 419.00,125.55 419.00,125.00 ZM 191.67 122.33 C191.30,121.97 191.00,121.20 191.00,120.63 C191.00,120.01 191.47,120.07 192.18,120.78 C192.83,121.43 193.13,122.20 192.85,122.48 C192.57,122.77 192.03,122.70 191.67,122.33 ZM 208.95 92.47 C209.14,92.88 209.34,93.31 209.56,93.75 C211.57,97.78 215.30,101.41 219.37,103.59 C214.41,101.33 210.93,97.62 208.95,92.47 ZM 226.69 55.69 C223.37,56.06 221.48,56.65 219.50,57.70 C215.38,59.88 212.41,62.43 210.40,65.69 C212.33,62.17 213.94,60.71 218.00,58.50 C221.29,56.70 222.66,55.98 226.69,55.69 ZM 176.53 89.08 C177.59,97.31 180.22,104.43 184.36,110.35 C179.97,104.24 177.44,97.39 176.53,89.08 ZM 189.39 116.25 C194.18,120.89 200.23,124.47 207.47,126.91 C200.29,124.67 194.29,121.13 189.39,116.25 ZM 499.12 52.87 C499.19,57.84 499.25,63.39 499.29,69.21 L 499.50 105.50 L 499.24 69.25 ZM 237.75 106.01 C239.85,106.00 240.00,105.57 240.00,99.50 L 240.00 106.00 L 236.75 106.17 C236.03,106.21 235.32,106.23 234.62,106.24 C235.65,106.11 236.87,106.02 237.75,106.01 ZM 608.38 124.00 C609.99,123.45 610.59,122.48 610.81,120.22 L 611.00 118.30 L 611.00 119.96 C611.00,122.37 610.67,123.39 608.38,124.00 ZM 208.92 68.65 C207.61,71.93 207.01,75.83 207.00,80.62 C207.00,80.57 207.00,80.53 207.00,80.48 C207.00,74.52 207.32,72.17 208.92,68.65 ZM 254.46 127.02 L 254.49 127.01 C258.88,125.82 263.05,124.38 263.74,123.80 C262.46,124.87 258.98,126.02 254.46,127.02 ZM 585.19 106.81 C585.16,107.79 585.19,108.78 585.27,109.79 C585.55,113.28 586.15,115.88 587.28,117.97 C585.67,115.07 584.94,111.31 585.19,106.81 ZM 323.29 76.70 L 328.35 71.21 L 331.93 72.48 C332.10,72.53 332.28,72.60 332.48,72.67 C332.31,72.61 332.15,72.55 332.01,72.50 L 328.50 71.27 ZM 597.37 110.46 C595.41,111.01 594.00,111.93 594.00,113.09 C594.00,111.72 594.90,110.91 597.37,110.46 ZM 180.59 57.87 C179.08,61.14 177.93,64.67 177.16,68.45 C177.84,64.66 178.92,61.34 180.59,57.87 ZM 222.37 129.60 C226.69,129.85 231.46,129.84 236.16,129.59 C235.41,129.64 234.66,129.68 233.91,129.71 C229.84,129.89 226.00,129.86 222.37,129.60 ZM 594.43 123.91 C596.35,124.49 598.93,124.81 601.52,124.83 C598.85,124.93 596.48,124.61 594.43,123.91 ZM 452.12 87.36 C456.68,101.50 461.32,115.74 463.19,121.22 C461.74,117.04 457.24,103.30 452.49,88.50 C452.37,88.12 452.24,87.74 452.12,87.36 ZM 588.36 119.62 C589.38,120.92 590.69,122.00 592.36,123.01 C590.77,122.16 589.44,121.02 588.36,119.62 ZM 382.82 90.04 C382.73,93.81 382.02,97.72 380.76,101.61 C381.99,97.76 382.70,93.87 382.82,90.04 ZM 464.82 125.85 C465.01,126.57 465.05,127.12 464.83,127.55 C464.56,128.10 463.86,128.44 462.56,128.66 C463.80,128.44 464.48,128.10 464.77,127.55 C465.00,127.12 464.99,126.57 464.82,125.85 ZM 320.37 105.39 C321.90,108.25 323.00,110.49 323.00,110.93 C323.00,110.55 321.95,108.36 320.37,105.39 ZM 594.00 113.09 C594.00,115.07 595.46,116.51 597.96,117.25 C595.45,116.51 594.00,115.07 594.00,113.09 Z" fill="rgb(14,29,74)"/>
<path d="M 31.00 126.58 C31.00,124.99 58.82,41.67 61.37,35.62 L 63.01 31.74 L 80.09 32.30 C89.49,32.60 97.31,33.00 97.46,33.17 C98.25,34.11 128.00,125.62 128.00,127.13 C128.00,127.61 121.49,128.00 113.53,128.00 L 99.06 128.00 L 94.35 112.50 L 78.76 112.23 L 63.18 111.95 L 60.51 119.98 L 57.84 128.00 L 44.42 128.00 C33.51,128.00 31.00,127.73 31.00,126.58 ZM 134.54 117.75 C134.18,112.11 134.02,90.62 134.19,70.00 L 134.50 32.50 L 164.50 32.50 L 164.82 48.00 C165.00,56.53 164.84,78.01 164.46,95.75 L 163.77 128.00 L 135.19 128.00 ZM 608.38 124.00 C607.19,124.31 605.46,124.51 602.98,124.74 C602.48,124.78 602.00,124.81 601.52,124.83 C598.93,124.81 596.35,124.49 594.43,123.91 C593.70,123.66 593.01,123.36 592.36,123.01 C590.69,122.00 589.38,120.92 588.36,119.62 C587.96,119.10 587.60,118.55 587.28,117.97 C586.15,115.88 585.55,113.28 585.27,109.79 C585.19,108.78 585.16,107.79 585.19,106.81 C585.28,105.15 585.50,103.40 585.86,101.55 C586.82,97.50 588.77,94.19 591.42,92.46 C597.57,88.43 607.89,90.32 610.72,96.00 C611.41,97.38 611.98,101.09 611.99,104.25 L 612.00 110.00 L 605.25 110.01 C604.65,110.01 604.08,110.02 603.54,110.03 C601.47,109.78 599.18,109.96 597.37,110.46 C594.90,110.91 594.00,111.72 594.00,113.09 C594.00,115.07 595.45,116.51 597.96,117.25 C599.80,117.79 602.22,117.95 605.04,117.65 L 611.00 117.03 L 611.00 118.30 L 610.81 120.22 C610.59,122.48 609.99,123.45 608.38,124.00 ZM 580.49 123.22 L 580.05 123.54 L 576.75 123.81 L 573.00 124.12 L 573.00 112.49 C573.00,106.10 572.53,100.00 571.96,98.93 C570.36,95.93 564.67,96.33 562.07,99.63 C560.26,101.93 560.00,103.66 560.00,113.13 L 560.00 124.00 L 553.00 124.00 L 553.00 91.00 L 555.93 91.00 C557.99,91.00 559.06,91.60 559.50,93.00 C560.06,94.77 560.31,94.83 561.61,93.53 C563.98,91.17 570.73,89.52 573.70,90.58 C579.06,92.48 579.99,95.25 580.26,110.00 ZM 619.50 97.50 L 618.18 97.37 C617.90,97.22 617.58,97.13 617.19,97.04 C615.92,96.74 614.91,96.16 614.94,95.75 C614.97,95.34 615.00,94.10 615.00,93.00 C615.00,91.53 615.67,91.00 617.50,91.00 C619.56,91.00 620.00,90.51 620.02,88.25 C620.03,84.85 620.78,83.78 624.15,82.30 C627.52,80.82 628.00,81.36 628.00,86.67 L 628.00 91.00 L 632.50 91.00 C636.83,91.00 637.00,91.11 637.00,94.00 C637.00,96.87 636.82,97.00 632.64,97.00 L 628.28 97.00 L 627.74 105.74 C627.07,116.44 627.75,118.00 633.04,118.00 C636.57,118.00 637.00,118.26 637.00,120.44 C637.00,121.78 636.66,123.07 636.25,123.31 C634.88,124.09 628.53,124.73 626.35,124.30 C622.40,123.54 620.97,121.36 620.30,113.48 C620.20,112.16 620.12,110.68 620.04,109.00 ZM 87.60 89.25 C87.31,88.29 85.45,81.43 83.47,74.00 C81.49,66.57 79.64,59.83 79.35,59.00 C78.83,57.51 70.07,85.91 70.03,89.25 C70.00,90.79 71.09,91.00 79.07,91.00 C87.24,91.00 88.08,90.83 87.60,89.25 ZM 605.00 101.04 C605.00,97.79 602.77,96.00 598.72,96.00 C596.02,96.00 593.56,98.37 592.73,101.75 C592.21,103.91 592.45,104.00 598.59,104.00 L 605.00 104.00 ZM 537.27 121.07 C537.14,120.47 537.10,119.89 537.15,119.33 C537.33,118.42 537.89,117.51 538.83,116.65 C543.75,112.21 550.12,118.74 545.43,123.43 C543.45,125.41 542.03,125.41 539.22,123.44 C538.22,122.74 537.57,121.93 537.27,121.07 ZM 323.45 76.52 C325.53,74.04 327.00,71.87 327.00,70.90 C327.00,69.85 327.45,69.00 328.00,69.00 C328.55,69.00 329.00,69.63 329.00,70.39 C329.00,70.87 329.42,71.40 330.06,71.81 L 328.35 71.21 ZM 316.81 83.48 C316.49,83.82 316.18,84.15 315.88,84.47 C313.25,86.97 311.61,88.00 310.43,88.00 C309.20,88.00 308.17,88.38 308.02,88.87 C308.17,88.38 309.18,88.00 310.40,88.00 C311.47,88.00 314.02,86.07 316.81,83.48 ZM 335.68 73.90 C337.60,74.63 339.90,75.55 342.15,76.49 L 345.20 77.77 L 343.04 76.87 C340.61,75.86 337.90,74.77 335.68,73.90 Z" fill="rgb(27,129,206)"/>
<path d="M 322.86 128.80 C317.67,124.48 317.11,123.67 318.07,121.87 C318.67,120.75 318.94,119.60 318.66,119.33 C318.39,119.05 317.66,119.77 317.05,120.91 C315.70,123.42 312.37,123.56 303.00,121.50 C294.12,119.55 294.00,119.57 294.00,123.00 C294.00,124.65 293.60,126.00 293.11,126.00 C292.63,126.00 289.51,123.09 286.18,119.54 C279.59,112.49 274.46,102.97 273.45,95.95 L 272.82 91.50 L 274.78 94.50 C275.85,96.15 278.33,98.89 280.28,100.58 L 283.82 103.67 L 284.35 101.08 C284.65,99.66 286.39,96.03 288.22,93.00 L 291.55 87.50 L 297.02 87.70 L 302.50 87.90 L 298.00 86.85 C295.52,86.27 292.96,85.36 292.30,84.82 C291.65,84.28 290.14,79.66 288.96,74.54 C287.18,66.85 287.02,64.82 288.04,62.86 L 289.27 60.50 L 286.89 62.63 C285.57,63.80 282.85,65.28 280.83,65.93 C278.81,66.57 276.62,67.75 275.96,68.55 C273.49,71.53 273.09,69.83 275.08,64.75 C281.00,49.55 294.58,37.70 310.96,33.42 C318.12,31.56 332.08,31.61 339.46,33.53 C346.20,35.29 354.93,39.77 359.96,44.05 L 363.42 47.00 L 359.88 47.00 C357.93,47.00 356.07,47.26 355.75,47.58 C355.43,47.91 356.48,50.94 358.08,54.33 C361.73,62.04 362.66,66.71 361.07,69.26 C360.41,70.32 360.12,71.45 360.43,71.76 C360.74,72.08 361.00,71.81 361.00,71.17 C361.00,68.98 365.57,70.00 369.04,72.96 C370.94,74.59 372.84,75.94 373.25,75.96 C373.66,75.98 374.00,74.43 374.00,72.50 C374.00,70.57 374.39,69.00 374.87,69.00 C376.08,69.00 376.98,75.20 376.98,83.50 C376.97,92.19 376.26,95.00 374.04,95.00 C373.10,95.00 371.86,96.01 371.30,97.25 C369.93,100.24 360.72,111.93 359.69,111.97 C359.25,111.99 356.45,110.09 353.48,107.75 C348.86,104.12 348.16,103.12 348.59,100.87 C348.88,99.42 349.44,94.13 349.84,89.12 L 350.56 80.02 L 342.15 76.49 C337.52,74.56 332.66,72.70 331.36,72.38 C330.06,72.05 329.00,71.16 329.00,70.39 C329.00,69.63 328.55,69.00 328.00,69.00 C327.45,69.00 327.00,69.85 327.00,70.90 C327.00,73.88 313.29,88.00 310.40,88.00 C309.08,88.00 308.00,88.45 308.00,89.00 C308.00,89.55 308.84,90.00 309.86,90.00 C311.17,90.00 313.39,92.94 317.36,99.92 C320.46,105.38 323.00,110.34 323.00,110.93 C323.00,111.65 323.59,111.70 324.75,111.09 C325.71,110.59 331.33,108.97 337.23,107.51 L 347.96 104.85 L 353.49 109.17 C359.68,114.01 359.67,113.72 354.19,122.26 C351.02,127.20 349.72,128.31 345.00,130.11 C341.98,131.26 337.08,132.54 334.12,132.95 C328.75,133.70 328.74,133.70 322.86,128.80 ZM 305.11 50.02 C308.07,50.03 313.36,50.64 316.86,51.37 L 323.23 52.71 L 327.36 48.85 C329.64,46.73 333.44,44.04 335.81,42.88 C339.94,40.85 340.03,40.71 338.09,39.35 C330.96,34.35 322.59,32.92 313.00,35.05 C304.51,36.93 303.32,37.77 301.97,42.83 C301.08,46.17 299.20,49.07 295.36,53.03 C292.41,56.07 290.00,58.82 290.00,59.14 C290.00,59.45 292.19,57.53 294.86,54.86 C299.48,50.24 299.98,50.00 305.11,50.02 ZM 211.16 128.03 C188.24,121.82 176.00,105.27 176.00,80.47 C176.00,54.77 190.28,37.61 215.96,32.44 C225.43,30.53 246.08,30.83 255.88,33.02 L 261.27 34.22 L 260.64 40.86 C260.30,44.51 260.01,49.81 260.01,52.64 C260.00,56.92 259.71,57.75 258.25,57.64 C257.29,57.56 256.18,57.05 255.79,56.50 C255.36,55.91 248.67,55.50 239.29,55.50 C223.63,55.50 223.45,55.53 218.00,58.50 C213.50,60.96 212.00,62.48 209.75,66.93 C207.42,71.53 207.00,73.60 207.00,80.48 C207.00,98.55 217.02,107.20 236.75,106.17 L 240.00 106.00 L 240.00 99.50 L 240.00 93.00 L 233.00 93.00 L 226.00 93.00 L 226.00 82.50 L 226.00 72.00 L 245.50 72.00 L 265.00 72.00 L 265.00 97.38 C265.00,116.57 264.69,123.01 263.74,123.80 C263.05,124.38 258.88,125.82 254.49,127.01 C242.61,130.23 221.13,130.74 211.16,128.03 ZM 364.00 128.04 C364.00,127.51 366.47,124.30 369.50,120.91 C378.96,110.31 383.93,96.90 382.63,85.50 C382.13,81.14 383.04,77.48 389.73,56.75 L 397.39 33.00 L 415.50 33.00 L 433.62 33.00 L 435.24 36.75 C436.13,38.81 437.61,43.20 438.54,46.50 C439.46,49.80 440.81,53.85 441.54,55.50 C442.26,57.15 447.19,72.00 452.49,88.50 C457.79,105.00 462.77,120.20 463.56,122.27 C466.21,129.22 466.67,129.00 449.73,129.00 L 434.46 129.00 L 432.12 120.50 L 429.77 112.00 L 417.14 112.12 C398.41,112.29 399.02,112.03 396.23,121.25 L 393.89 129.00 L 378.95 129.00 C370.04,129.00 364.00,128.61 364.00,128.04 ZM 422.45 90.08 C422.95,89.28 415.65,59.32 414.74,58.41 C414.32,57.99 405.96,87.94 405.98,89.75 C406.00,91.24 421.54,91.56 422.45,90.08 ZM 469.00 81.01 L 469.00 33.00 L 483.99 33.00 L 498.98 33.00 L 499.24 69.25 L 499.50 105.50 L 515.78 105.77 L 532.07 106.05 L 531.78 117.27 L 531.50 128.50 L 500.25 128.76 L 469.00 129.03 L 469.00 81.01 Z" fill="rgb(248,249,250)"/>
</g>
</svg>